<svg width="714" height="881" viewBox="0 0 714 881" fill="none" xmlns="http://www.w3.org/2000/svg">
<g filter="url(#filter0_d_2_8)">
<path d="M101 107C101 101.477 105.477 97 111 97H356.431H603C608.523 97 613 101.477 613 107V766C613 771.523 608.523 776 603 776H111C105.477 776 101 771.523 101 766V107Z" fill="white" shape-rendering="crispEdges"/>
<path d="M111 96.5C105.201 96.5 100.5 101.201 100.5 107V766C100.5 771.799 105.201 776.5 111 776.5H603C608.799 776.5 613.5 771.799 613.5 766V107C613.5 101.201 608.799 96.5 603 96.5H356.431H111Z" stroke="#E1E1E1" stroke-opacity="0.9" shape-rendering="crispEdges"/>
</g>
<defs>
<filter id="filter0_d_2_8" x="0" y="0" width="714" height="881" filterUnits="userSpaceOnUse" color-interpolation-filters="sRGB">
<feFlood flood-opacity="0" result="BackgroundImageFix"/>
<feColorMatrix in="SourceAlpha" type="matrix" values="0 0 0 0 0 0 0 0 0 0 0 0 0 0 0 0 0 0 127 0" result="hardAlpha"/>
<feOffset dy="4"/>
<feGaussianBlur stdDeviation="50"/>
<feComposite in2="hardAlpha" operator="out"/>
<feColorMatrix type="matrix" values="0 0 0 0 0 0 0 0 0 0 0 0 0 0 0 0 0 0 0.25 0"/>
<feBlend mode="normal" in2="BackgroundImageFix" result="effect1_dropShadow_2_8"/>
<feBlend mode="normal" in="SourceGraphic" in2="effect1_dropShadow_2_8" result="shape"/>
</filter>
</defs>
</svg>
