<svg width="712" height="459" viewBox="0 0 712 459" fill="none" xmlns="http://www.w3.org/2000/svg">
<g filter="url(#filter0_d_12_14)">
<path d="M100 106C100 100.477 104.477 96 110 96H355.431H602C607.523 96 612 100.477 612 106V345C612 350.523 607.523 355 602 355H110C104.477 355 100 350.523 100 345V106Z" fill="white"/>
<path d="M611.5 106V345C611.5 350.247 607.247 354.5 602 354.5H110C104.753 354.5 100.5 350.247 100.5 345V106C100.5 100.753 104.753 96.5 110 96.5H355.431H602C607.247 96.5 611.5 100.753 611.5 106Z" stroke="#E1E1E1"/>
</g>
<defs>
<filter id="filter0_d_12_14" x="0" y="0" width="712" height="459" filterUnits="userSpaceOnUse" color-interpolation-filters="sRGB">
<feFlood flood-opacity="0" result="BackgroundImageFix"/>
<feColorMatrix in="SourceAlpha" type="matrix" values="0 0 0 0 0 0 0 0 0 0 0 0 0 0 0 0 0 0 127 0" result="hardAlpha"/>
<feOffset dy="4"/>
<feGaussianBlur stdDeviation="50"/>
<feComposite in2="hardAlpha" operator="out"/>
<feColorMatrix type="matrix" values="0 0 0 0 0 0 0 0 0 0 0 0 0 0 0 0 0 0 0.25 0"/>
<feBlend mode="normal" in2="BackgroundImageFix" result="effect1_dropShadow_12_14"/>
<feBlend mode="normal" in="SourceGraphic" in2="effect1_dropShadow_12_14" result="shape"/>
</filter>
</defs>
</svg>
